<?xml version="1.0" standalone="no"?>
<!DOCTYPE svg PUBLIC "-//W3C//DTD SVG 1.1//EN" "http://www.w3.org/Graphics/SVG/1.1/DTD/svg11.dtd" >
<svg xmlns="http://www.w3.org/2000/svg" xmlns:xlink="http://www.w3.org/1999/xlink" version="1.1">
<metadata>
Created by FontForge 20201107 at Wed Jun 17 07:12:27 2026
 By Unknown
 
</metadata>
<defs>
<font id="miscellanium2miscellanium2" horiz-adv-x="0" >
  <font-face 
    font-family="miscellanium2"
    font-weight="500"
    font-stretch="normal"
    units-per-em="1000"
    panose-1="0 0 0 0 0 0 0 0 0 0"
    ascent="800"
    descent="-200"
    x-height="220"
    bbox="-21 -21 421 421"
    underline-thickness="0"
    underline-position="0"
    unicode-range="U+0020-007E"
  />
<missing-glyph horiz-adv-x="600" 
d="M220 0c0 -11 -9 -20 -20 -20s-20 9 -20 20s9 20 20 20s20 -9 20 -20zM14 186v1l186 186l152 -152h-152c-11 0 -20 -9 -20 -20s9 -20 20 -20h200c18 0 27 22 14 34l-200 200c-8 8 -21 8 -29 0l-200 -200c-8 -8 -8 -21 0 -29s21 -8 29 0z" />
    <glyph glyph-name=".notdef" horiz-adv-x="600" 
d="M220 0c0 -11 -9 -20 -20 -20s-20 9 -20 20s9 20 20 20s20 -9 20 -20zM14 186v1l186 186l152 -152h-152c-11 0 -20 -9 -20 -20s9 -20 20 -20h200c18 0 27 22 14 34l-200 200c-8 8 -21 8 -29 0l-200 -200c-8 -8 -8 -21 0 -29s21 -8 29 0z" />
    <glyph glyph-name="a" unicode="a" 
d="M-14 386l200 -200c8 -8 21 -8 29 0s8 21 0 29l-200 200c-8 8 -21 8 -29 0s-8 -21 0 -29z" />
    <glyph glyph-name="b" unicode="b" 
d="M180 400v-200c0 -11 9 -20 20 -20s20 9 20 20v200c0 11 -9 20 -20 20s-20 -9 -20 -20z" />
    <glyph glyph-name="c" unicode="c" 
d="M386 414l-200 -200c-8 -8 -8 -21 0 -29s21 -8 29 0l200 200c8 8 8 21 0 29s-21 8 -29 0z" />
    <glyph glyph-name="d" unicode="d" 
d="M400 220h-200c-11 0 -20 -9 -20 -20s9 -20 20 -20h200c11 0 20 9 20 20s-9 20 -20 20z" />
    <glyph glyph-name="e" unicode="e" 
d="M414 14l-200 200c-8 8 -21 8 -29 0s-8 -21 0 -29l200 -200c8 -8 21 -8 29 0s8 21 0 29z" />
    <glyph glyph-name="f" unicode="f" 
d="M220 0v200c0 11 -9 20 -20 20s-20 -9 -20 -20v-200c0 -11 9 -20 20 -20s20 9 20 20z" />
    <glyph glyph-name="g" unicode="g" 
d="M14 -14l200 200c8 8 8 21 0 29s-21 8 -29 0l-200 -200c-8 -8 -8 -21 0 -29s21 -8 29 0z" />
    <glyph glyph-name="h" unicode="h" 
d="M0 180h200c11 0 20 9 20 20s-9 20 -20 20h-200c-11 0 -20 -9 -20 -20s9 -20 20 -20z" />
    <glyph glyph-name="i" unicode="i" 
d="M0 380h200c11 0 20 9 20 20s-9 20 -20 20h-200c-11 0 -20 -9 -20 -20s9 -20 20 -20z" />
    <glyph glyph-name="j" unicode="j" 
d="M200 380h200c11 0 20 9 20 20s-9 20 -20 20h-200c-11 0 -20 -9 -20 -20s9 -20 20 -20z" />
    <glyph glyph-name="k" unicode="k" 
d="M380 400v-200c0 -11 9 -20 20 -20s20 9 20 20v200c0 11 -9 20 -20 20s-20 -9 -20 -20z" />
    <glyph glyph-name="l" unicode="l" 
d="M380 200v-200c0 -11 9 -20 20 -20s20 9 20 20v200c0 11 -9 20 -20 20s-20 -9 -20 -20z" />
    <glyph glyph-name="m" unicode="m" 
d="M400 20h-200c-11 0 -20 -9 -20 -20s9 -20 20 -20h200c11 0 20 9 20 20s-9 20 -20 20z" />
    <glyph glyph-name="n" unicode="n" 
d="M200 20h-200c-11 0 -20 -9 -20 -20s9 -20 20 -20h200c11 0 20 9 20 20s-9 20 -20 20z" />
    <glyph glyph-name="o" unicode="o" 
d="M20 0v200c0 11 -9 20 -20 20s-20 -9 -20 -20v-200c0 -11 9 -20 20 -20s20 9 20 20z" />
    <glyph glyph-name="p" unicode="p" 
d="M20 200v200c0 11 -9 20 -20 20s-20 -9 -20 -20v-200c0 -11 9 -20 20 -20s20 9 20 20z" />
    <glyph glyph-name="q" unicode="q" 
d="M186 414l-200 -200c-8 -8 -8 -21 0 -29s21 -8 29 0l200 200c8 8 8 21 0 29s-21 8 -29 0z" />
    <glyph glyph-name="r" unicode="r" 
d="M414 214l-200 200c-8 8 -21 8 -29 0s-8 -21 0 -29l200 -200c8 -8 21 -8 29 0s8 21 0 29z" />
    <glyph glyph-name="s" unicode="s" 
d="M214 -14l200 200c8 8 8 21 0 29s-21 8 -29 0l-200 -200c-8 -8 -8 -21 0 -29s21 -8 29 0z" />
    <glyph glyph-name=" " unicode=" " horiz-adv-x="600" 
 />
    <glyph glyph-name="_" unicode="_" horiz-adv-x="600" 
 />
    <glyph glyph-name="-" unicode="-" horiz-adv-x="200" 
 />
    <glyph glyph-name="`" unicode="`" horiz-adv-x="600" 
 />
    <glyph glyph-name="t" unicode="t" 
d="M214 14l-200 200c-8 8 -21 8 -29 0s-8 -21 0 -29l200 -200c8 -8 21 -8 29 0s8 21 0 29z" />
    <glyph glyph-name="~" unicode="~" horiz-adv-x="400" 
 />
  </font>
</defs>
</svg>
